<svg width="80" height="26" viewBox="0 0 80 26" fill="none" xmlns="http://www.w3.org/2000/svg">
<path d="M20.2452 25.8982C13.7628 25.1293 8.65793 21.3964 5.03403 14.7753C3.24512 11.5068 1.63743 7.12319 0.510753 2.44174C-0.0861297 -0.0383596 -0.177956 -0.841751 0.331249 1.07934C1.7017 6.24969 4.03263 11.1893 6.35127 14.7138C10.3055 20.7246 15.3871 23.7763 21.4307 23.7697C24.4597 23.7664 25.4076 23.1875 29.8214 18.6454C32.6957 15.6875 33.5976 14.9363 34.776 14.5187C35.2705 14.3434 35.5427 14.3072 36.0421 14.35C38.6608 14.5745 40.2616 16.8604 39.3365 19.0542C38.8585 20.1876 38.0555 20.8752 35.7424 22.1316C32.2038 24.0538 28.9289 25.219 25.57 25.7511C24.3256 25.9483 21.3581 26.0302 20.2452 25.8982ZM55.6107 25.8971C52.0091 25.5357 48.2286 24.282 44.3013 22.1466C41.9278 20.856 41.2239 20.2619 40.7167 19.1211C39.7277 16.8969 41.3114 14.5784 43.9757 14.35C44.4752 14.3072 44.7473 14.3435 45.2418 14.5187C46.4197 14.9362 47.3179 15.6845 50.1803 18.6335C53.6974 22.2569 54.9217 23.2037 56.6375 23.627C57.5958 23.8634 60.5978 23.7746 61.9453 23.47C66.1914 22.5102 69.7474 20.0713 72.6955 16.0967C75.3115 12.57 77.7503 7.41149 79.4879 1.72915C79.7332 0.927135 79.9227 0.191437 79.9415 0.10277C79.9623 0.00659796 79.9988 -0.0469619 79.996 0.055253C80.0695 0.24463 79.1128 4.15656 78.5171 6.10233C77.1145 10.6836 75.4082 14.4196 73.3149 17.4928C72.5075 18.6781 70.6492 20.7484 69.5784 21.6556C65.7026 24.9389 60.8244 26.4203 55.6107 25.8971V25.8971Z" fill="white"/>
</svg>
